<?xml version="1.0" encoding="UTF-8" standalone="no"?>
<svg
   version="1.1"
   id="Layer_1"
   x="0px"
   y="0px"
   width="100%"
   viewBox="0 0 1024 1024"
   enable-background="new 0 0 1024 1024"
   xml:space="preserve"
   sodipodi:docname="logo - preview.svg"
   inkscape:version="1.4.2 (f4327f4, 2025-05-13)"
   inkscape:export-filename="logo.png"
   inkscape:export-xdpi="96"
   inkscape:export-ydpi="96"
   xmlns:inkscape="http://www.inkscape.org/namespaces/inkscape"
   xmlns:sodipodi="http://sodipodi.sourceforge.net/DTD/sodipodi-0.dtd"
   xmlns="http://www.w3.org/2000/svg"
   xmlns:svg="http://www.w3.org/2000/svg"><defs
   id="defs152" /><sodipodi:namedview
   id="namedview152"
   pagecolor="#ffffff"
   bordercolor="#000000"
   borderopacity="0.25"
   inkscape:showpageshadow="false"
   inkscape:pageopacity="0.0"
   inkscape:pagecheckerboard="0"
   inkscape:deskcolor="#d1d1d1"
   borderlayer="false"
   showborder="false"
   inkscape:antialias-rendering="true"
   inkscape:zoom="0.77850967"
   inkscape:cx="514.44448"
   inkscape:cy="547.19937"
   inkscape:window-width="1680"
   inkscape:window-height="990"
   inkscape:window-x="-8"
   inkscape:window-y="-8"
   inkscape:window-maximized="1"
   inkscape:current-layer="Layer_1"
   inkscape:export-bgcolor="#ffffff00" />

<g
   inkscape:groupmode="layer"
   id="layer2"
   inkscape:label="CIRCULO"
   style="display:none"><circle
     style="fill:#cccccc;fill-opacity:1;stroke:#1f293a;stroke-width:0;stroke-linejoin:round;stroke-dasharray:none"
     id="path153"
     cx="509.5719"
     cy="509.57193"
     r="433.86404" /></g><g
   inkscape:groupmode="layer"
   id="layer3"
   inkscape:label="360"
   style="display:none"><text
     xml:space="preserve"
     style="font-weight:bold;font-size:122.642px;font-family:Lato;-inkscape-font-specification:'Lato Bold';text-align:start;writing-mode:lr-tb;direction:ltr;text-anchor:start;fill:#6b07fa;fill-opacity:1;stroke:#1f293a;stroke-width:0;stroke-linejoin:round;stroke-dasharray:none"
     x="310.62061"
     y="309.99255"
     id="text153"><tspan
       sodipodi:role="line"
       id="tspan153"
       x="310.62061"
       y="309.99255"
       style="fill:#6b07fa;fill-opacity:1;stroke-width:0">360</tspan></text></g><g
   inkscape:groupmode="layer"
   id="layer5"
   inkscape:label="fondo"
   style="paint-order:markers fill stroke"
   transform="matrix(0.92979059,0,0,1.5523213,33.336669,-219.85731)"><rect
     style="fill:#ffffff;stroke:#ffffff;stroke-width:9.95311;stroke-linecap:round;stroke-linejoin:round;paint-order:markers fill stroke"
     id="rect2"
     width="657.33191"
     height="275.56226"
     x="189.49707"
     y="399.86743" /></g><path
   fill="#EC416E"
   opacity="1"
   stroke="none"
   d="m 60.368803,520.60043 c -0.07772,-1.18547 -0.15533,-2.37098 0.322748,-4.55966 1.590945,-16.68991 2.648407,-32.37527 3.561861,-48.06898 0.02963,-0.50975 -1.411098,-1.10497 -2.166401,-1.66032 0.425664,-4.25993 0.851346,-8.51991 1.971323,-13.55554 2.313902,-9.32337 4.167315,-17.83542 5.475176,-26.43049 0.953211,-6.26405 1.186902,-12.63769 1.7414,-18.96245 11.003333,-49.42787 29.25689,-95.99652 56.27631,-138.85267 42.31903,-67.12327 97.56718,-120.81477 168.36918,-158.57437 10.42638,-4.72327 20.01413,-9.762 29.60189,-14.800759 0,-2.8e-5 0.0229,0.150625 0.57599,0.178626 2.06706,-0.147085 3.69114,-0.02632 5.07787,-0.542798 14.87286,-5.539801 29.72436,-11.138566 44.52972,-16.855819 1.53322,-0.592098 2.73085,-2.053328 4.08424,-3.111283 0,2.9e-5 0.10374,0.166405 0.67479,0.265431 3.28661,-0.327775 6.04161,-0.586115 8.71034,-1.212205 8.82096,-2.069421 17.61075,-4.271708 27.01807,-6.490325 20.89303,-3.12568 41.18046,-6.184009 62.12406,-9.251738 3.68204,-0.493962 6.70555,-1.379746 9.73422,-1.39812 19.98876,-0.121488 40.03646,-0.999311 59.95148,0.220874 18.83502,1.154026 37.52294,4.640442 56.29232,6.966537 7.40188,0.917287 14.84894,1.470602 22.27535,2.189659 6.62921,1.595669 13.25834,3.191357 20.00613,5.502391 1.81034,1.140613 3.502,1.565841 5.19375,1.991079 0,0 0.63762,-0.04591 1.24519,0.491529 11.87431,4.335415 23.14103,8.133532 34.40766,11.931677 0,0 0.68051,0.0085 1.30598,0.540214 9.2716,3.775199 17.91791,7.018723 26.56413,10.262248 0,0 -0.15666,0.01022 4.7e-4,0.464759 4.52537,2.804653 8.8937,5.155243 13.26203,7.505853 8.70447,3.92796 17.76041,7.23077 26.05278,11.89194 36.24393,20.37267 68.33178,46.25032 97.0116,76.19521 25.31198,26.42831 47.84044,55.12631 65.50302,87.35367 4.40894,8.04455 8.19682,16.42955 12.37271,25.65526 0.59883,1.33256 1.09514,1.66798 1.59135,2.00341 0,0 -0.17294,-0.005 -0.17957,0.4363 0.57734,1.18959 1.16112,1.93833 1.74508,2.68708 0,0 -0.18525,0.0102 -0.19084,0.4373 0.56201,1.17902 1.12969,1.93108 1.69728,2.68315 0,0 -0.16064,0.0134 -0.19235,0.56245 2.63499,6.37913 5.30189,12.20925 7.96878,18.03944 0,0 -0.16887,0.009 -0.21128,0.50963 1.07147,2.7614 2.18526,5.02224 3.29904,7.28312 0,-5e-5 -0.17692,-0.0128 -0.20475,0.52836 6.68215,22.44338 13.39212,44.34565 20.08932,66.82824 0.58236,2.26186 1.17749,3.94344 1.77263,5.62496 0,0 -0.15846,-0.0242 -0.17636,0.58452 1.47256,8.46469 2.96319,16.32054 4.45363,24.17642 0,0 0.22501,0.67114 0.19898,1.66165 0.43601,3.72802 0.89796,6.46555 1.35981,9.20312 0,0 0.22956,0.6674 0.20504,1.73457 -0.0114,5.31702 1.9e-4,9.56681 0,14.48362 0.46905,3.43646 1.37183,6.20586 1.37278,8.97553 0.0133,37.72535 1.92484,75.53716 -5.64759,112.91309 -1.11559,5.5065 -0.44681,11.3746 -0.60357,17.07535 0.0227,0.29398 0.0445,0.58798 -0.65448,1.40667 -1.75143,4.57509 -2.78097,8.62529 -4.26232,13.0154 -5.28173,15.67587 -10.16237,30.99621 -14.90746,46.35839 -1.25976,4.07852 -2.10234,8.28602 -3.13642,12.43424 0,0 -0.0615,-0.16518 -0.46081,0.0887 -0.6384,1.6804 -0.87751,3.10676 -1.11672,4.53323 0,0 -0.009,-0.14737 -0.48145,0.0313 -1.70968,3.72798 -2.94633,7.27715 -4.18289,10.8264 0,0 -0.018,-0.13838 -0.48022,0.0315 -2.21716,4.30337 -3.97209,8.43681 -5.72711,12.57027 0,0 0.0218,0.63068 -0.44964,1.09476 -0.6845,0.94108 -0.8972,1.41814 -1.11,1.89511 0,0 0,-0.20713 -0.43061,-0.0449 -2.78854,5.71485 -5.14447,11.26738 -7.5005,16.81982 -8.53533,14.08252 -16.87301,28.29082 -25.71154,42.18042 -3.15307,4.95517 -7.37743,6.06255 -14.27134,5.10368 -12.00419,-1.66959 -19.47014,-7.48305 -26.95282,-16.34985 C 769.2069,653.45302 682.04776,550.90433 594.99377,448.26698 c -0.65352,-0.77045 -1.17766,-1.65061 -2.27405,-3.20531 -17.14269,21.35858 -33.70565,41.99489 -50.67757,63.14079 95.3586,113.13495 190.53098,226.04888 286.23242,339.59058 -24.80625,22.85175 -52.02636,42.15263 -81.94369,58.61245 -2.66104,1.07251 -4.50273,2.44387 -6.34431,3.81542 0,0 -0.0354,-0.12069 -0.4748,-0.0767 -1.17984,0.58709 -1.92019,1.12969 -2.66057,1.67239 0,0 0.009,-0.13263 -0.43085,-0.103 -1.18087,0.58122 -1.92228,1.13272 -2.66379,1.68422 0,0 9.5e-4,-0.14559 -0.43453,-0.12155 -1.17891,0.57867 -1.92153,1.13319 -2.66418,1.68782 0,-1e-4 -0.003,-0.15156 -0.43643,-0.13035 -1.17804,0.5779 -1.92286,1.1347 -2.66768,1.69131 0,0 9.5e-4,-0.15875 -0.42773,-0.14085 -1.18106,0.56673 -1.9327,1.11549 -2.68423,1.66443 0,0 0.005,-0.14578 -0.43058,-0.12079 -1.17917,0.58075 -1.92247,1.13622 -2.66578,1.69179 0,0 9.5e-4,-0.14976 -0.55027,-0.17257 -5.87029,2.62591 -11.18859,5.27472 -16.50688,7.92344 0,0 -0.0129,-0.13773 -0.57719,-0.15932 -2.08376,0.15118 -3.7043,0.0407 -5.10737,0.54005 -15.21225,5.41718 -30.39033,10.93026 -46.17881,16.49076 -16.22018,4.12743 -31.83933,8.18102 -47.45848,12.23461 0,0 -0.66981,0.20835 -1.35731,0.32516 -1.14972,0.30983 -1.49088,0.63139 -1.7107,1.08151 -3.82289,0.14095 -7.64568,0.2819 -12.81168,0.41963 -24.94302,1.51193 -48.52493,3.61531 -72.1491,4.34316 -16.71027,0.51486 -33.47798,-0.83208 -50.22004,-1.34798 -9.4975,-1.12628 -18.99702,-2.23514 -28.4912,-3.38859 -2.98742,-0.36293 -5.9603,-0.84495 -9.70472,-1.95003 -2.73865,-0.7802 -4.71248,-0.8829 -6.68628,-0.98552 -0.74429,-0.009 -1.48855,-0.0133 -2.86856,-0.79307 -12.74532,-4.4098 -24.81894,-8.17249 -36.98648,-11.60198 -3.64156,-1.02641 -7.54551,-1.12193 -11.32923,-1.6438 -1.89118,-0.51325 -3.78236,-1.0265 -6.08078,-2.23334 -0.85792,-0.67541 -1.3086,-0.65723 -1.75925,-0.63906 -0.88039,-0.14265 -1.76084,-0.2854 -3.05244,-1.36133 -4.4861,-2.21933 -8.56097,-3.50559 -12.63583,-4.79185 0,0 0.15608,0 -0.0188,-0.46526 -6.30563,-2.75285 -12.43642,-5.04185 -18.56716,-7.33095 0,0 0.11587,-0.0312 -0.0398,-0.37325 -0.66037,-0.57943 -1.1651,-0.81684 -1.66978,-1.05425 0,-9e-5 0.22631,0 -0.0245,-0.40969 -1.68072,-0.67229 -3.11055,-0.93137 -4.54037,-1.19065 0,0 0.1729,0 0.0161,-0.45788 -7.35726,-3.76998 -14.55773,-7.08351 -21.75817,-10.39704 0,0 0.1811,-0.0417 -0.0168,-0.42219 -1.15151,-0.64417 -2.10522,-0.90761 -3.05898,-1.17115 0,0 0.16386,-0.0388 -0.0374,-0.41139 -1.13731,-0.64493 -2.07335,-0.9168 -3.00944,-1.18867 0,0 0.11868,-0.0322 0.0946,-0.49186 -2.05137,-1.22662 -4.0785,-1.99385 -6.10564,-2.76117 -30.92687,-17.39895 -59.68127,-37.62402 -84.12408,-64.69499 80.72546,-93.74989 161.43927,-187.48626 242.78731,-281.95918 51.16392,60.62588 102.05211,120.9251 152.81937,181.8876 0.25913,0.90394 0.63931,1.1447 1.01949,1.38536 0,0 -0.12686,0.31379 -0.18394,0.69244 0.45472,0.64575 0.96664,0.91284 1.47846,1.18002 0,0 -0.17094,-0.11612 -0.16328,0.39979 1.11183,1.27473 2.21599,2.03348 3.32006,2.79223 0.83072,0.74007 1.66136,1.48015 2.62979,3.1417 0.75475,1.62045 1.37162,2.31951 1.98848,3.01848 0,0 -0.19643,-0.13865 -0.18847,0.35368 1.08512,1.22841 2.16228,1.96462 3.23945,2.70071 0,0 -0.1468,0.0661 -0.17616,0.53277 1.00585,1.21781 2.04105,1.96897 3.07635,2.72004 0,0 -0.11612,0.0328 -0.0743,0.48607 0.66535,1.12897 1.28893,1.80465 1.91251,2.48042 0,0 -0.17662,-0.15637 -0.19662,0.37412 1.62082,1.8057 3.26172,3.08091 4.90252,4.35621 0.82172,0.74066 1.64335,1.4812 2.59939,3.14208 0.75031,1.61722 1.36642,2.31422 1.98252,3.01121 0,0 -0.17049,-0.13412 -0.18109,0.41475 2.52731,2.27566 4.87382,5.02137 7.63847,5.54039 8.67548,1.62878 17.50856,2.41915 26.92347,3.56062 15.80222,2.05886 30.96144,4.0912 46.12075,6.12355 7.20905,0.61138 14.418,1.22275 23.15401,1.96358 C 635.63143,675.24419 541.62732,562.36785 447.44952,449.28285 c -25.47029,29.27712 -50.74779,58.29165 -75.98065,87.34497 -56.91982,65.53805 -113.81569,131.09714 -170.72677,196.64286 -7.79195,8.97402 -15.30511,18.22243 -23.57778,26.73083 -3.27498,3.36816 -8.04953,5.63975 -12.54293,7.36371 -4.82323,1.85031 -10.09868,2.56945 -15.21329,3.60087 -6.04778,1.21962 -9.6946,-2.37121 -12.64323,-6.8658 -4.80747,-7.32801 -9.468,-14.75262 -13.91697,-22.91789 -0.70234,-2.03318 -1.67811,-3.28491 -2.65389,-4.53673 0,0 0.15686,-0.18924 0.16224,-0.53077 -0.46449,-0.66298 -0.93434,-0.98453 -1.40421,-1.30617 2e-5,0 0.14627,-0.004 0.17323,-0.53524 -2.07323,-3.80156 -4.17342,-7.07217 -6.27356,-10.34278 0,0 0.12162,-0.0361 0.11088,-0.58656 -1.10375,-2.22642 -2.19681,-3.90216 -3.28983,-5.578 -3e-5,0 0.12798,-0.0469 0.11421,-0.48768 -0.57374,-1.18466 -1.13369,-1.92853 -1.69363,-2.67249 -2e-5,0 0.15334,3.7e-4 0.17314,-0.49621 -0.65615,-1.64184 -1.33213,-2.7871 -2.0081,-3.93227 3e-5,0 -0.18746,0.0659 0.12264,-0.35082 -2.84751,-6.43543 -6.00522,-12.45403 -9.162923,-18.47265 0,0 0.145031,-0.0253 0.176099,-0.58598 -0.345031,-2.53469 -0.497228,-4.58409 -1.132358,-6.47086 -5.440293,-16.16165 -10.875276,-32.32661 -16.554674,-48.40484 -1.02841,-2.91127 -3.166328,-5.43082 -4.792023,-8.13117 -0.717495,-2.29924 -1.434962,-4.59838 -1.713986,-7.75279 -0.193763,-2.13141 -0.825996,-3.40775 -1.45823,-4.68401 -0.237629,-0.79502 -0.475285,-1.58994 -0.185442,-3.19314 0.393773,-3.29211 0.431561,-5.79925 0.09863,-8.25618 -2.220566,-16.3903 -4.520279,-32.76989 -6.801164,-49.80905 -0.514096,-9.31792 -0.844199,-17.99586 -1.64511,-26.63033 -0.217655,-2.34613 -1.855562,-4.56051 -2.841621,-6.8354 M 394.51971,760.57206 c 0.26992,-0.98056 0.5398,-1.96102 0.85775,-3.55153 0.15164,-0.44194 0.46082,-0.67351 1.81787,-0.82212 0.43436,-0.9565 0.86875,-1.91299 1.59771,-3.87904 27.78682,-33.6277 55.57364,-67.25539 83.65619,-101.24099 -10.17937,-12.24539 -20.65032,-24.84159 -31.1662,-37.49187 -51.30954,59.1835 -102.04811,117.70837 -152.7867,176.23326 0.17887,0.5553 0.35772,1.1106 0.53658,1.6659 8.3629,-2.30228 16.72582,-4.60445 25.89769,-6.05185 9.25867,-2.0384 18.51735,-4.07681 27.89621,-5.93895 0,0 -0.16802,0.13126 1.28856,0.19567 9.61163,-2.16285 19.22319,-4.32562 29.24923,-7.20848 0.81075,-0.7165 1.62149,-1.43291 3.58378,-2.19477 0.74197,-1.56549 1.48396,-3.13101 2.32741,-5.39918 0.21959,-0.47915 0.59214,-0.73848 2.25133,-0.78128 0.64372,-1.14877 1.28743,-2.29755 2.15627,-3.33654 0,0 -0.13392,0.21168 0.83632,-0.19823 z"
   id="path2"
   style="fill:#ff5500;fill-opacity:1;stroke-width:1.55176" />






<path
   fill="#eb285a"
   opacity="1"
   stroke="none"
   d="m 625.98315,65.944238 c -6.83882,-0.569275 -14.28588,-1.12257 -21.68776,-2.039867 -18.76938,-2.326095 -37.4573,-5.812511 -56.2923,-6.966537 -19.91503,-1.220185 -39.96274,-0.342324 -59.9515,-0.220874 -3.02867,0.01827 -6.05219,0.904139 -9.7327,0.926025 -0.65543,-1.092761 -0.65612,-1.722865 -0.65684,-2.35296 49.77723,-3.990857 99.05493,-0.956988 148.3211,10.654213 z"
   id="path9"
   style="display:inline;fill:#ff5500;fill-opacity:1;stroke-width:1.55176" />
<path
   fill="#ec295b"
   opacity="1"
   stroke="none"
   d="m 967.97746,603.71032 c 0.0208,-5.09989 -0.64796,-10.96802 0.46762,-16.4745 7.57244,-37.37595 5.66066,-75.18774 5.64759,-112.91309 -9.4e-4,-2.76967 -0.90373,-5.53907 -0.9467,-8.97098 1.00975,-0.66337 1.57895,-0.66436 2.14815,-0.66531 4.59377,46.50349 2.15752,92.64228 -7.31666,139.02388 z"
   id="path10"
   style="display:inline;fill:#ff5500;fill-opacity:1;stroke-width:1.55176" />


<path
   fill="#EB154C"
   opacity="1"
   stroke="none"
   d="m 467.04217,961.28457 c 16.41795,-0.0312 33.18567,1.10618 49.89594,0.6714 23.62416,-0.61464 47.20607,-2.39086 71.43316,-3.74932 -5.08321,1.19883 -10.72449,3.24148 -16.51683,3.61535 -19.9924,1.29075 -40.03366,2.63219 -60.06391,2.7206 -14.80191,0.0655 -29.61576,-1.79093 -44.74836,-3.25803 z"
   id="path13"
   style="fill:#ff5500;fill-opacity:1;stroke-width:1.42598" />




<path
   fill="#EB2658"
   opacity="1"
   stroke="none"
   d="m 964.92093,407.29807 c -6.70988,-21.90232 -13.41985,-43.80459 -20.07758,-66.33322 6.18101,17.29579 12.36761,35.19842 18.39214,53.15539 1.305,3.88971 2.02708,7.97499 2.66945,12.57944 -0.34816,0.60929 -0.98401,0.59839 -0.98401,0.59839 z"
   id="path18"
   style="fill:#ff5500;fill-opacity:1;stroke-width:1.55176" />
<path
   fill="#EB285A"
   opacity="1"
   stroke="none"
   d="m 75.07952,628.38388 c 1.461837,2.07782 3.599754,4.59735 4.628174,7.50862 5.679389,16.07823 11.114371,32.24319 16.554664,48.40484 0.635131,1.88677 0.787327,3.93617 1.125893,6.54417 C 89.981633,670.65249 82.61253,649.82946 75.07952,628.38388 Z"
   id="path19"
   style="fill:#ff5500;fill-opacity:1;stroke-width:1.55176" />
<path
   fill="#EB2458"
   opacity="1"
   stroke="none"
   d="m 477.02558,55.413076 c 0.63717,0.507044 0.63789,1.137148 0.63714,2.239337 -20.28895,3.530396 -40.57638,6.588725 -61.50426,9.210353 -0.67397,-0.772096 -0.70759,-1.107472 -0.74117,-1.442838 18.62573,-3.030082 37.25134,-6.060997 55.87747,-9.088713 1.6964,-0.275729 3.39615,-0.530548 5.73082,-0.918139 z"
   id="path20"
   style="fill:#ff5500;fill-opacity:1;stroke-width:1.55176" />
<path
   fill="#EB2256"
   opacity="1"
   stroke="none"
   d="m 945.35557,677.23255 c 0.55935,-3.8549 1.40193,-8.0624 2.66168,-12.14092 4.74509,-15.36218 9.62574,-30.68252 14.94618,-45.8259 0.53929,0.54562 0.58804,0.89871 0.63669,1.2517 -5.92324,18.80727 -11.84658,37.61453 -18.24455,56.71512 z"
   id="path21"
   style="fill:#ff5500;fill-opacity:1;stroke-width:1.55176" />
<path
   fill="#EB2256"
   opacity="1"
   stroke="none"
   d="m 64.862425,554.72233 c 2.273994,16.383 4.573706,32.76258 6.794273,49.15288 0.332867,2.45693 0.295078,4.96407 -0.023,7.83548 -3.066867,-14.51527 -5.710561,-29.41328 -8.277105,-44.32444 -0.647502,-3.76179 -1.048583,-7.56592 -0.973005,-12.00984 1.21956,-0.65749 1.849191,-0.65579 2.47884,-0.65408 z"
   id="path22"
   style="fill:#ff5500;fill-opacity:1;stroke-width:1.55176" />
<path
   fill="#EB2054"
   opacity="1"
   stroke="none"
   d="m 379.16928,74.823285 c -0.73256,1.038587 -1.93019,2.499817 -3.46341,3.091915 -14.80536,5.717253 -29.65686,11.316018 -44.52972,16.855819 -1.38673,0.51652 -3.01081,0.395713 -5.15383,0.537573 17.08927,-6.84415 34.80767,-13.655045 53.14696,-20.485307 z"
   id="path23"
   style="fill:#ff5500;fill-opacity:1;stroke-width:1.55176" />
<path
   fill="#EB2658"
   opacity="1"
   stroke="none"
   d="m 653.02641,944.16884 c 15.18744,-5.48695 30.36552,-10.99993 45.57777,-16.41712 1.40308,-0.49972 3.02361,-0.38887 5.17585,-0.5302 -16.09147,6.23497 -32.81572,12.4387 -50.14821,18.16912 -0.60815,-0.47331 -0.60541,-1.2218 -0.60541,-1.2218 z"
   id="path24"
   style="fill:#ff5500;fill-opacity:1;stroke-width:1.55176" />
<path
   fill="#EB2458"
   opacity="1"
   stroke="none"
   d="m 371.18525,941.14195 c 3.25006,0.31551 7.15401,0.41102 10.79557,1.43734 12.16754,3.42958 24.24116,7.19227 36.48976,11.33929 -15.49122,-3.84864 -31.12141,-8.20931 -47.28533,-12.77663 z"
   id="path25"
   style="fill:#ff5500;fill-opacity:1;stroke-width:1.55176" />
<path
   fill="#EB2658"
   opacity="1"
   stroke="none"
   d="m 61.96415,466.97801 c 0.878164,-0.11114 2.318938,0.48403 2.289262,0.99378 -0.913454,15.69371 -1.970916,31.37907 -3.450056,47.483 0.05007,-15.6586 0.543981,-31.73439 1.160794,-48.47678 z"
   id="path26"
   style="fill:#ff5500;fill-opacity:1;stroke-width:1.55176" />
<path
   fill="#EB2256"
   opacity="1"
   stroke="none"
   d="m 707.26451,788.04537 c -15.21559,-1.72116 -30.71017,-4.05898 -46.86084,-6.82652 -0.66293,-0.96213 -0.65867,-1.49433 -0.64308,-2.02644 15.74164,2.74552 31.48318,5.49092 47.50392,8.85296 z"
   id="path27"
   style="fill:#ff5500;fill-opacity:1;stroke-width:1.68261" />
<path
   fill="#EB2054"
   opacity="1"
   stroke="none"
   d="m 71.110748,407.94183 c -0.390336,5.74592 -0.624027,12.11956 -1.577238,18.38361 -1.307861,8.59507 -3.161274,17.10712 -5.358932,25.78938 1.871967,-14.44162 4.321992,-29.01789 6.93617,-44.17299 z"
   id="path28"
   style="fill:#ff5500;fill-opacity:1;stroke-width:1.55176" />
<path
   fill="#EB2256"
   opacity="1"
   stroke="none"
   d="m 652.42537,944.24249 c 0.60104,-0.0738 0.5983,0.67484 0.59252,1.04913 -15.57708,4.03863 -31.14859,7.70307 -47.38544,11.27644 14.9536,-4.14456 30.57274,-8.19815 46.79292,-12.32557 z"
   id="path29"
   style="fill:#ff5500;fill-opacity:1;stroke-width:1.55176" />
<path
   fill="#EB2658"
   opacity="1"
   stroke="none"
   d="m 64.855534,554.06616 c -0.622768,0.65446 -1.252389,0.65276 -2.354559,0.65352 -1.073725,-10.89148 -1.67492,-21.7854 -2.204143,-33.39925 1.05803,1.55489 2.695937,3.76928 2.913592,6.1154 0.800911,8.63448 1.131014,17.31242 1.64511,26.63033 z"
   id="path30"
   style="fill:#ff5500;fill-opacity:1;stroke-width:1.55176" />
<path
   fill="#EB1F54"
   opacity="1"
   stroke="none"
   d="m 660.13321,779.09995 c 0.64016,0.99118 0.63557,1.57565 0.64184,2.5989 -9.67313,-0.97021 -19.41237,-1.96869 -28.97781,-4.0263 -3.04828,-0.65568 -5.63549,-4.1243 -8.32244,-7.07486 4.27405,1.31399 8.28328,4.35115 12.63347,5.27007 7.67978,1.62233 15.56738,1.95363 24.02494,3.23219 z"
   id="path31"
   style="fill:#ff5500;fill-opacity:1;stroke-width:1.83139" />
<path
   fill="#EB2054"
   opacity="1"
   stroke="none"
   d="m 414.76506,65.457679 c 0.68581,0.297615 0.71943,0.632991 0.78781,1.472419 -8.76688,2.655337 -17.55667,4.857624 -26.37763,6.927045 -2.66873,0.62609 -5.42373,0.88443 -8.79956,1.252805 10.80552,-3.24378 22.27133,-6.429135 34.38938,-9.652269 z"
   id="path32"
   style="fill:#ff5500;fill-opacity:1;stroke-width:1.55176" />
<path
   fill="#EB1F54"
   opacity="1"
   stroke="none"
   d="m 687.18127,85.503548 c -11.02443,-3.290987 -22.29115,-7.089104 -33.85556,-11.346149 11.00607,3.307052 22.30974,7.073022 33.85556,11.346149 z"
   id="path33"
   style="fill:#ff5500;fill-opacity:1;stroke-width:1.55176" />
<path
   fill="#EB2054"
   opacity="1"
   stroke="none"
   d="m 324.94373,95.219837 c -9.0092,4.954113 -18.59695,9.992843 -28.4856,14.633733 9.10179,-5.1149 18.50438,-9.83199 28.4856,-14.633733 z"
   id="path34"
   style="fill:#1e1d85;fill-opacity:1;stroke-width:1.55176" />
<path
   fill="#EB2256"
   opacity="1"
   stroke="none"
   d="m 714.94939,96.388261 c -8.30203,-2.818618 -16.94834,-6.062142 -25.89365,-9.740967 8.31708,2.815135 16.93328,6.065607 25.89365,9.740967 z"
   id="path35"
   style="fill:#ff5500;fill-opacity:1;stroke-width:1.55176" />
<path
   fill="#EB1F54"
   opacity="1"
   stroke="none"
   d="m 300.82286,910.67216 c 6.8983,2.8724 14.09877,6.18593 21.43592,10.03988 -6.95342,-2.83937 -14.0436,-6.21906 -21.43592,-10.03988 z"
   id="path36"
   style="fill:#1e1d85;fill-opacity:1;stroke-width:1.55176" />
<path
   fill="#10AFD7"
   opacity="1"
   stroke="none"
   d="m 516.35577,1209.8292 c -7.98175,-1.0291 -16.60632,-2.2081 -25.37595,-3.9679 8.14764,0.8853 16.44038,2.3516 25.37595,3.9679 z"
   id="path37"
   style="fill:#e16549;fill-opacity:1;stroke-width:1.63928" />
<path
   fill="#EA1A50"
   opacity="1"
   stroke="none"
   d="m 971.07989,437.74589 c -1.61218,-7.33753 -3.10281,-15.19338 -4.55454,-23.73554 1.58454,7.2816 3.13045,15.24938 4.55454,23.73554 z"
   id="path38"
   style="fill:#1e1d85;fill-opacity:1;stroke-width:1.55176" />
<path
   fill="#EB285A"
   opacity="1"
   stroke="none"
   d="m 97.289841,691.92862 c 3.086479,5.44418 6.244199,11.46278 9.006979,17.84622 -3.24185,-5.51399 -6.08882,-11.39289 -9.006979,-17.84622 z"
   id="path39"
   style="fill:#1e1d85;fill-opacity:1;stroke-width:1.55176" />
<path
   fill="#EB1F54"
   opacity="1"
   stroke="none"
   d="m 923.23036,724.9278 c 2.06656,-5.10804 4.42249,-10.66056 7.31354,-16.35933 -1.98476,5.20739 -4.50446,10.56113 -7.31354,16.35933 z"
   id="path40"
   style="fill:#ff5500;fill-opacity:1;stroke-width:1.55176" />
<path
   fill="#EB1F54"
   opacity="1"
   stroke="none"
   d="m 328.91675,924.50578 c 5.75131,1.89702 11.88211,4.18602 18.17286,7.01545 -5.82453,-1.84741 -11.80899,-4.23534 -18.17286,-7.01545 z"
   id="path41"
   style="fill:#1e1d85;fill-opacity:1;stroke-width:1.55176" />
<path
   fill="#EB2658"
   opacity="1"
   stroke="none"
   d="m 941.85679,332.1394 c -2.58776,-5.2406 -5.25466,-11.07072 -7.87782,-17.52959 2.62875,5.22751 5.21376,11.08373 7.87782,17.52959 z"
   id="path42"
   style="fill:#ff5500;fill-opacity:1;stroke-width:1.55176" />
<path
   fill="#EB2658"
   opacity="1"
   stroke="none"
   d="m 704.86468,927.30842 c 4.74235,-2.58615 10.06066,-5.23506 16.00377,-7.84411 -4.72606,2.6206 -10.07694,5.20107 -16.00377,7.84411 z"
   id="path43"
   style="fill:#1e1d85;fill-opacity:1;stroke-width:1.55176" />

<path
   fill="#EB2256"
   opacity="1"
   stroke="none"
   d="m 728.35208,104.30839 c -4.16433,-1.87522 -8.53266,-4.22581 -13.04495,-7.107839 4.1844,1.856498 8.51266,4.244459 13.04495,7.107839 z"
   id="path45"
   style="fill:#ff5500;fill-opacity:1;stroke-width:1.55176" />
<path
   fill="#EC295B"
   opacity="1"
   stroke="none"
   d="m 963.98511,620.06054 c -0.43364,0.10386 -0.48239,-0.24919 -0.56995,-1.13465 0.99091,-4.58276 2.02045,-8.63296 3.57848,-12.81026 -0.52225,4.41135 -1.57299,8.94977 -3.00853,13.94491 z"
   id="path46"
   style="fill:#ff5500;fill-opacity:1;stroke-width:1.55176" />
<path
   fill="#EB1F54"
   opacity="1"
   stroke="none"
   d="m 932.89406,705.317 c 1.2926,-3.84316 3.04753,-7.9766 5.33417,-12.27512 -1.26941,3.88491 -3.07063,7.93482 -5.33417,12.27512 z"
   id="path47"
   style="fill:#ff5500;fill-opacity:1;stroke-width:1.55176" />


<path
   fill="#EB285A"
   opacity="1"
   stroke="none"
   d="m 112.95174,724.46314 c 2.00058,2.73833 4.10075,6.00894 6.15495,9.88117 -2.04909,-2.71531 -4.05222,-6.03214 -6.15495,-9.88117 z"
   id="path50"
   style="fill:#1e1d85;fill-opacity:1;stroke-width:1.55176" />
<path
   fill="#EB1F54"
   opacity="1"
   stroke="none"
   d="m 347.48352,932.33409 c 3.71463,0.86217 7.7895,2.14834 12.00832,4.00124 -3.7867,-0.81475 -7.71736,-2.19595 -12.00832,-4.00124 z"
   id="path51"
   style="fill:#1e1d85;fill-opacity:1;stroke-width:1.55176" />
<path
   fill="#EA1A50"
   opacity="1"
   stroke="none"
   d="m 975.34911,464.07403 c -0.62419,0.61337 -1.19339,0.61436 -2.18857,0.61076 -0.43837,-4.2544 -0.45068,-8.50419 -0.44254,-13.46841 0.90913,3.60552 1.79772,7.92536 2.63111,12.85765 z"
   id="path52"
   style="fill:#ff5500;fill-opacity:1;stroke-width:1.55176" />

<path
   fill="#EB1F54"
   opacity="1"
   stroke="none"
   d="m 939.04714,692.64767 c 0.82838,-3.19142 2.06504,-6.74059 3.8478,-10.45778 -0.78238,3.25472 -2.11095,6.67733 -3.8478,10.45778 z"
   id="path54"
   style="fill:#ff5500;fill-opacity:1;stroke-width:1.55176" />

<path
   fill="#0FADD6"
   opacity="1"
   stroke="none"
   d="m 832.6308,1327.5804 c 2.33865,-0.8789 5.29826,-1.7014 8.689,-2.1128 -2.4019,0.9973 -5.23503,1.5832 -8.689,2.1128 z"
   id="path56"
   style="fill:#ff5f15;fill-opacity:1;stroke-width:1.63928" />


<path
   fill="#EB1F54"
   opacity="1"
   stroke="none"
   d="m 288.79631,904.07379 c 1.61798,0.47804 3.64511,1.24536 5.68024,2.53143 -1.7517,-0.40155 -3.51142,-1.32185 -5.68024,-2.53143 z"
   id="path59"
   style="fill:#1e1d85;fill-opacity:1;stroke-width:1.55176" />
<path
   fill="#EA1A50"
   opacity="1"
   stroke="none"
   d="m 972.63129,448.64636 c -0.5762,-2.25492 -1.03815,-4.99245 -1.47198,-8.36663 0.54742,2.20362 1.06683,5.04377 1.47198,8.36663 z"
   id="path60"
   style="fill:#1e1d85;fill-opacity:1;stroke-width:1.55176" />
<path
   fill="#EB2658"
   opacity="1"
   stroke="none"
   d="m 740.48002,910.12019 c 1.3486,-1.27074 3.19028,-2.64219 5.31905,-3.61853 -1.41727,1.43602 -3.12173,2.47691 -5.31905,3.61853 z"
   id="path61"
   style="fill:#1e1d85;fill-opacity:1;stroke-width:1.55176" />

<path
   fill="#EB2658"
   opacity="1"
   stroke="none"
   d="m 944.95089,339.95967 c -1.04099,-1.69881 -2.15478,-3.95965 -3.20864,-6.80372 1.08529,1.6917 2.11057,3.96666 3.20864,6.80372 z"
   id="path63"
   style="fill:#ff5500;fill-opacity:1;stroke-width:1.55176" />

<path
   fill="#EB1F54"
   opacity="1"
   stroke="none"
   d="m 622.23176,765.17467 c -1.41851,-0.81794 -3.05941,-2.09314 -4.5801,-3.96117 1.53274,0.77286 2.94527,2.13833 4.5801,3.96117 z"
   id="path65"
   style="fill:#1e1d85;fill-opacity:1;stroke-width:1.55176" />

<path
   fill="#EB2458"
   opacity="1"
   stroke="none"
   d="m 422.34442,955.11794 c 1.46525,-0.0407 3.43907,0.0615 5.51076,0.6686 -1.60216,0.16111 -3.30216,-0.18185 -5.51076,-0.6686 z"
   id="path67"
   style="fill:#1e1d85;fill-opacity:1;stroke-width:1.55176" />



<path
   fill="#EB285A"
   opacity="1"
   stroke="none"
   d="m 109.76212,718.27103 c 1.00413,1.17111 2.09719,2.84686 3.17391,5.13057 -1.03924,-1.13664 -2.06213,-2.88125 -3.17391,-5.13057 z"
   id="path71"
   style="fill:#1e1d85;fill-opacity:1;stroke-width:1.55176" />
<path
   fill="#EB285A"
   opacity="1"
   stroke="none"
   d="m 120.25886,737.12564 c 0.91139,0.772 1.88716,2.02373 2.46628,3.53477 -1.06504,-0.8454 -1.73343,-1.95022 -2.46628,-3.53477 z"
   id="path72"
   style="fill:#1e1d85;fill-opacity:1;stroke-width:1.55176" />





<path
   fill="#EB1F54"
   opacity="1"
   stroke="none"
   d="m 651.4987,73.158277 c -1.41983,0.0038 -3.11149,-0.421243 -4.46493,-1.179405 1.62318,0.02811 2.90804,0.389172 4.46493,1.179405 z"
   id="path78"
   style="fill:#ff5500;fill-opacity:1;stroke-width:1.55176" />
<path
   fill="#EA1A50"
   opacity="1"
   stroke="none"
   d="m 964.90825,407.87837 c 0.0133,-0.5803 0.64853,-0.5694 0.9664,-0.56713 0.44945,1.64856 0.58093,3.29485 0.75928,5.56663 -0.54819,-1.05609 -1.14332,-2.73767 -1.72568,-4.9995 z"
   id="path79"
   style="fill:#ff5500;fill-opacity:1;stroke-width:1.55176" />





<path
   fill="#EB1F54"
   opacity="1"
   stroke="none"
   d="m 612.84499,754.23812 c -0.91237,-0.29181 -1.98954,-1.02802 -2.98145,-2.33239 0.99571,0.25042 1.90619,1.0693 2.98145,2.33239 z"
   id="path85"
   style="fill:#1e1d85;fill-opacity:1;stroke-width:1.55176" />
<path
   fill="#EB1F54"
   opacity="1"
   stroke="none"
   d="m 605.14639,745.0226 c -0.90991,-0.31351 -2.01408,-1.07225 -3.0434,-2.40931 0.99949,0.26917 1.92427,1.11656 3.0434,2.40931 z"
   id="path86"
   style="fill:#2cc26c;fill-opacity:1;stroke-width:1.55176" />
<path
   fill="#EB1F54"
   opacity="1"
   stroke="none"
   d="m 322.57834,921.52944 c 1.11429,-0.18431 2.54412,0.0748 4.19315,0.85574 -1.14634,0.21034 -2.51196,-0.10091 -4.19315,-0.85574 z"
   id="path87"
   style="fill:#1e1d85;fill-opacity:1;stroke-width:1.55176" />

<path
   fill="#EB2256"
   opacity="1"
   stroke="none"
   d="m 71.889745,615.88561 c 0.485934,0.71518 1.118168,1.99153 1.347589,3.59966 -0.668972,-0.79162 -0.93515,-1.9151 -1.347589,-3.59966 z"
   id="path89"
   style="fill:#1e1d85;fill-opacity:1;stroke-width:1.55176" />
<path
   fill="#EB1F54"
   opacity="1"
   stroke="none"
   d="m 943.70903,681.80252 c -0.16651,-1.08124 0.0729,-2.5076 0.79742,-4.20524 0.19321,1.10597 -0.0994,2.48289 -0.79742,4.20524 z"
   id="path90"
   style="fill:#1e1d85;fill-opacity:1;stroke-width:1.55176" />
<path
   fill="#EB285A"
   opacity="1"
   stroke="none"
   d="m 106.21021,710.698 c 0.72459,0.62482 1.40058,1.77008 2.03914,3.48655 -0.72086,-0.60795 -1.40433,-1.78713 -2.03914,-3.48655 z"
   id="path91"
   style="fill:#1e1d85;fill-opacity:1;stroke-width:1.55176" />
<path
   fill="#EB1F54"
   opacity="1"
   stroke="none"
   d="m 615.73667,757.50323 c -0.86198,-0.31908 -1.8972,-1.07025 -2.90076,-2.36857 0.93016,0.28074 1.82879,1.10862 2.90076,2.36857 z"
   id="path92"
   style="fill:#1e1d85;fill-opacity:1;stroke-width:1.55176" />



<path
   fill="#EB1F54"
   opacity="1"
   stroke="none"
   d="m 609.94452,751.14291 c -0.60257,-0.21385 -1.21943,-0.91293 -1.86102,-2.12365 0.59916,0.20497 1.22294,0.92166 1.86102,2.12365 z"
   id="path96"
   style="fill:#1e1d85;fill-opacity:1;stroke-width:1.55176" />




<path
   fill="#EB285A"
   opacity="1"
   stroke="none"
   d="m 108.1632,715.07959 c 0.49055,0.2705 1.05048,1.01438 1.61317,2.26628 -0.51278,-0.25894 -1.02826,-1.02593 -1.61317,-2.26628 z"
   id="path101"
   style="fill:#1e1d85;fill-opacity:1;stroke-width:1.55176" />
<path
   fill="#EB1F54"
   opacity="1"
   stroke="none"
   d="m 617.74883,760.42114 c -0.62425,-0.1952 -1.24783,-0.87088 -1.89083,-2.05584 0.61761,0.18555 1.25446,0.88046 1.89083,2.05584 z"
   id="path102"
   style="fill:#1e1d85;fill-opacity:1;stroke-width:1.55176" />
<path
   fill="#EB2658"
   opacity="1"
   stroke="none"
   d="m 932.58584,310.5214 c -0.51675,-0.2635 -1.10053,-1.01224 -1.64947,-2.28356 0.55074,0.25108 1.06664,1.02468 1.64947,2.28356 z"
   id="path103"
   style="fill:#ff5500;fill-opacity:1;stroke-width:1.55176" />


<path
   fill="#EB2658"
   opacity="1"
   stroke="none"
   d="m 734.22785,913.33442 c 0.27069,-0.4877 1.0121,-1.0391 2.25738,-1.60395 -0.25969,0.50455 -1.02318,1.02225 -2.25738,1.60395 z"
   id="path106"
   style="fill:#1e1d85;fill-opacity:1;stroke-width:1.55176" />
<path
   fill="#EB1F54"
   opacity="1"
   stroke="none"
   d="m 294.71149,907.38978 c 0.62288,-0.0805 1.55891,0.19159 2.70083,0.92048 -0.65868,0.11521 -1.52313,-0.22652 -2.70083,-0.92048 z"
   id="path107"
   style="fill:#1e1d85;fill-opacity:1;stroke-width:1.55176" />

<path
   fill="#EB1F54"
   opacity="1"
   stroke="none"
   d="m 297.71947,909.03651 c 0.67937,-0.13537 1.63308,0.12817 2.78491,0.8652 -0.70475,0.16017 -1.60758,-0.15316 -2.78491,-0.8652 z"
   id="path109"
   style="fill:#1e1d85;fill-opacity:1;stroke-width:1.55176" />
<path
   fill="#EB2658"
   opacity="1"
   stroke="none"
   d="m 737.3168,911.74562 c 0.27525,-0.47132 1.01561,-1.01392 2.25378,-1.57734 -0.26443,0.48817 -1.02659,0.99707 -2.25378,1.57734 z"
   id="path110"
   style="fill:#1e1d85;fill-opacity:1;stroke-width:1.55176" />
<path
   fill="#EB2658"
   opacity="1"
   stroke="none"
   d="m 934.1027,313.64335 c -0.5108,-0.26832 -1.07848,-1.02038 -1.6225,-2.29042 0.53768,0.25686 1.05169,1.0318 1.6225,2.29042 z"
   id="path111"
   style="fill:#ff5500;fill-opacity:1;stroke-width:1.55176" />
<path
   fill="#EB2658"
   opacity="1"
   stroke="none"
   d="m 721.8171,919.54931 c 0.27211,-0.48485 1.01541,-1.04033 2.2657,-1.60432 -0.26027,0.50549 -1.02734,1.0196 -2.2657,1.60432 z"
   id="path112"
   style="fill:#1e1d85;fill-opacity:1;stroke-width:1.55176" />
<path
   fill="#EB2658"
   opacity="1"
   stroke="none"
   d="m 731.13057,914.9003 c 0.2704,-0.49034 1.01303,-1.04487 2.26305,-1.6082 -0.25876,0.5089 -1.0248,1.02651 -2.26305,1.6082 z"
   id="path113"
   style="fill:#1e1d85;fill-opacity:1;stroke-width:1.55176" />

<path
   fill="#EB2658"
   opacity="1"
   stroke="none"
   d="m 728.02503,916.45322 c 0.274,-0.48428 1.01882,-1.04108 2.2713,-1.60498 -0.26168,0.50597 -1.03114,1.01931 -2.2713,1.60498 z"
   id="path115"
   style="fill:#1e1d85;fill-opacity:1;stroke-width:1.55176" />
<path
   fill="#EB2658"
   opacity="1"
   stroke="none"
   d="m 724.91723,917.98314 c 0.27656,-0.48296 1.0282,-1.03171 2.28674,-1.58141 -0.26596,0.50454 -1.03891,1.01003 -2.28674,1.58141 z"
   id="path116"
   style="fill:#1e1d85;fill-opacity:1;stroke-width:1.55176" />

<path
   fill="#EB1F54"
   opacity="1"
   stroke="none"
   d="m 600.8595,740.08352 c -0.35044,0.0792 -0.73062,-0.16158 -0.81187,-0.57283 0.29891,-0.17067 0.78222,0.25289 0.81187,0.57283 z"
   id="path118"
   style="fill:#2cc26c;fill-opacity:1;stroke-width:1.55176" />

<path
   fill="#EB285A"
   opacity="1"
   stroke="none"
   d="m 119.05209,735.25137 c 0.37028,-0.12085 0.84013,0.20071 1.377,0.96304 -0.38109,0.12034 -0.82926,-0.20012 -1.377,-0.96304 z"
   id="path120"
   style="fill:#1e1d85;fill-opacity:1;stroke-width:1.55176" />


<path
   fill="#EB2256"
   opacity="1"
   stroke="none"
   d="m 602.28719,957.89152 c -0.16849,-0.45797 0.17267,-0.77954 0.97177,-1.09533 0.03,0.28579 -0.27667,0.69454 -0.97177,1.09533 z"
   id="path123"
   style="fill:#1e1d85;fill-opacity:1;stroke-width:1.55176" />


<path
   fill="#EB2658"
   opacity="1"
   stroke="none"
   d="m 930.96041,307.43676 c -0.36908,0.11114 -0.86539,-0.22434 -1.49499,-1.00537 0.36701,-0.1109 0.86748,0.22394 1.49499,1.00537 z"
   id="path126"
   style="fill:#ff5500;fill-opacity:1;stroke-width:1.55176" />

<path
   fill="#EB1F54"
   opacity="1"
   stroke="none"
   d="m 931.25916,708.43721 c -0.17436,-0.317 0.0379,-0.79407 0.60953,-1.44059 0.1649,0.31389 -0.0284,0.79731 -0.60953,1.44059 z"
   id="path128"
   style="fill:#ff5500;fill-opacity:1;stroke-width:1.55176" />



<path
   fill="#EB1F54"
   opacity="1"
   stroke="none"
   d="m 363.1539,938.26718 c 0.10834,-0.22217 0.55899,-0.24044 1.055,0.0961 -0.20727,0.27234 -0.45991,0.19017 -1.055,-0.0961 z"
   id="path132"
   style="fill:#1e1d85;fill-opacity:1;stroke-width:1.55176" />
<path
   fill="#EB1F54"
   opacity="1"
   stroke="none"
   d="m 602.12733,741.78872 c -0.45539,0.21992 -0.9673,-0.0471 -1.57925,-0.75543 0.44079,-0.20458 0.9817,0.0319 1.57925,0.75543 z"
   id="path133"
   style="fill:#2cc26c;fill-opacity:1;stroke-width:1.55176" />







<path
   fill="#EB1F54"
   opacity="1"
   stroke="none"
   d="m 326.83429,923.165 c 0.49815,-0.24139 1.00287,0 1.66268,0.63546 -0.44856,0.21564 -1.05235,0.0293 -1.66268,-0.63546 z"
   id="path141"
   style="fill:#1e1d85;fill-opacity:1;stroke-width:1.55176" />




<path
   fill="#FFFEFE"
   opacity="1"
   stroke="none"
   d="m 396.30553,756.32597 c -0.46665,0.0212 -0.77584,0.25277 -1.37168,1.29679 -0.75746,1.5211 -1.07062,2.44018 -1.38384,3.35937 4e-5,0 0.13397,-0.21169 -0.43928,-0.14113 -1.28775,1.13684 -2.00218,2.20311 -2.71665,3.26929 -0.52556,0.0395 -0.89811,0.29882 -1.56427,1.42172 -1.30854,2.02951 -2.17047,3.41515 -3.03241,4.8008 -0.81073,0.71649 -1.62146,1.43291 -3.29978,2.55137 -10.52451,2.51538 -20.1814,4.62869 -29.83824,6.74211 0,0 0.16802,-0.13127 -0.63301,-0.32486 -9.83538,1.63019 -18.86978,3.45397 -27.90413,5.27766 -8.36292,2.30228 -16.72584,4.60445 -25.08874,6.90673 -0.17886,-0.55529 -0.35772,-1.11059 -0.53658,-1.6659 50.73859,-58.52488 101.47716,-117.04976 152.78669,-176.23326 10.51589,12.65029 20.98684,25.24648 31.16621,37.49187 -28.08256,33.9856 -55.86938,67.6133 -84.15761,102.05391 -0.99651,1.60651 -1.49158,2.40002 -1.98668,3.19353 z"
   id="path146"
   style="fill:#ffffff;fill-opacity:1;stroke-width:1.55176" />
<path
   fill="#EA1A50"
   opacity="1"
   stroke="none"
   d="m 324.52671,785.00653 c 8.62988,-2.25113 17.66428,-4.07491 27.43957,-5.79328 -8.51774,2.14391 -17.77642,4.18232 -27.43957,5.79328 z"
   id="path147"
   style="fill:#2cc26c;fill-opacity:1;stroke-width:1.55176" />
<path
   fill="#EA1A50"
   opacity="1"
   stroke="none"
   d="m 353.38767,779.65849 c 8.92855,-2.14562 18.58544,-4.25893 28.90272,-6.41421 -8.95124,2.1208 -18.5628,4.28356 -28.90272,6.41421 z"
   id="path148"
   style="fill:#2cc26c;fill-opacity:1;stroke-width:1.55176" />
<path
   fill="#EA1A50"
   opacity="1"
   stroke="none"
   d="m 386.37317,770.31008 c 0.28617,-1.36292 1.1481,-2.74856 2.40588,-4.42668 -0.34613,1.27304 -1.08811,2.83855 -2.40588,4.42668 z"
   id="path149"
   style="fill:#2cc26c;fill-opacity:1;stroke-width:1.55176" />
<path
   fill="#EA1A50"
   opacity="1"
   stroke="none"
   d="m 390.96094,764.10868 c 0.14761,-1.06457 0.86204,-2.13084 2.03723,-3.32251 -0.18303,1.02327 -0.82675,2.17204 -2.03723,3.32251 z"
   id="path150"
   style="fill:#2cc26c;fill-opacity:1;stroke-width:1.55176" />
<path
   fill="#EA1A50"
   opacity="1"
   stroke="none"
   d="m 396.75071,756.26232 c 0.05,-0.72986 0.54499,-1.52337 1.39418,-2.62507 -0.0802,0.64832 -0.51461,1.60482 -1.39418,2.62507 z"
   id="path151"
   style="fill:#2cc26c;fill-opacity:1;stroke-width:1.55176" />
<path
   fill="#EA1A50"
   opacity="1"
   stroke="none"
   d="m 394.03514,760.77716 c -0.17191,-0.71422 0.14125,-1.6333 0.87466,-2.84942 0.1503,0.68345 -0.11958,1.66391 -0.87466,2.84942 z"
   id="path152"
   style="fill:#2cc26c;fill-opacity:1;stroke-width:1.55176" />
<g
   inkscape:groupmode="layer"
   id="layer1"
   inkscape:label="Capa" /><g
   inkscape:groupmode="layer"
   id="layer4"
   inkscape:label="Capa 1"><rect
     style="fill:#ffffff;stroke:#ffffff;stroke-width:7.22895;stroke-linecap:round;stroke-linejoin:round"
     id="rect1"
     width="71.118645"
     height="133.64941"
     x="272.00479"
     y="523.58215" /></g></svg>
